<?xml version="1.0" encoding="UTF-8"?>
<svg id="Camada_2" data-name="Camada 2" xmlns="http://www.w3.org/2000/svg" viewBox="0 0 411.97 128.49">
  <defs>
    <style>
      .cls-1 {
        fill: #1ad3af;
      }

      .cls-2 {
        fill: #1ad3af;
      }

      .cls-3 {
        fill: #00b6c4;
      }
    </style>
  </defs>
  <g id="Workstation">
    <g id="Logo">
      <g id="Marca">
        <path class="cls-2" d="M106.55,0L42.13,64.09l64.43,64.17,63.83-64.17L106.55,0Zm-.3,115.83L54.72,63.98l30.6-30.53,15.87,15.91-14.64,14.62,14.64,14.79-14.04,13.96,6.13,6.3,14.13-14.09,13.15,13.19,6.04-6.17-13.15-13.23,14.68-14.63-14.72-14.73,13.19-13.11-6.13-6.26-13.11,13.11-15.91-16,14.81-14.98,51.87,51.96-51.87,51.74Zm1.16-59.99l8.14,8.14-8.14,8.14-8.14-8.14,8.14-8.14Z"/>
        <polygon class="cls-3" points="64.61 0 83.91 19.22 77.72 25.38 64.53 12.24 12.38 64.16 64.49 116.04 77.75 102.84 84 109.05 64.47 128.49 0 64.31 64.61 0"/>
      </g>
    </g>
    <g>
      <path class="cls-1" d="M188.06,45.07h11.13l7.42,24.27c1.24,4.57,2.66,9.33,3.9,14.08h.38c1.33-4.76,2.66-9.52,4-14.08l7.42-24.27h10.56l-15.89,46.73h-12.66l-16.27-46.73Z"/>
      <path class="cls-1" d="M239.26,68.48c0-15.23,10.56-24.55,21.51-24.55,12.66,0,19.32,9.14,19.32,22.17,0,2.09-.19,4.19-.48,5.33h-29.69c.95,8.28,6.28,13.04,13.8,13.04,4,0,7.42-1.24,10.85-3.43l3.71,6.85c-4.47,2.95-10.09,5.04-15.99,5.04-12.94,0-23.03-9.04-23.03-24.46Zm31.31-4.47c0-7.23-3.14-11.61-9.52-11.61-5.52,0-10.28,4.09-11.23,11.61h20.75Z"/>
      <path class="cls-1" d="M290.21,45.07h9.04l.76,8.28h.38c3.33-6.09,8.28-9.42,13.23-9.42,2.38,0,3.9,.29,5.33,.95l-1.9,9.52c-1.62-.48-2.85-.76-4.85-.76-3.71,0-8.18,2.57-11.04,9.61v28.55h-10.94V45.07Z"/>
      <path class="cls-1" d="M332.02,76v-22.27h-6.66v-8.18l7.23-.48,1.33-12.75h9.14v12.75h11.9v8.66h-11.9v22.27c0,5.52,2.09,8.18,6.57,8.18,1.62,0,3.52-.48,4.85-1.05l1.9,8.09c-2.57,.86-5.8,1.71-9.52,1.71-10.85,0-14.85-6.85-14.85-16.94Z"/>
      <path class="cls-1" d="M366.38,76v-22.27h-6.66v-8.18l7.23-.48,1.33-12.75h9.14v12.75h11.9v8.66h-11.9v22.27c0,5.52,2.09,8.18,6.57,8.18,1.62,0,3.52-.48,4.85-1.05l1.9,8.09c-2.57,.86-5.8,1.71-9.52,1.71-10.85,0-14.85-6.85-14.85-16.94Z"/>
      <path class="cls-1" d="M401.02,45.07h10.94v46.73h-10.94V45.07Zm10.94-15.83h-10.94v10.94h10.94v-10.94Z"/>
    </g>
  </g>
</svg>